<svg width="24" height="21" viewBox="0 0 24 21" fill="none" xmlns="http://www.w3.org/2000/svg">
<path d="M21.3333 10.5824V4.21448H23.6666V11.856H21.3333M21.3333 16.9504H23.6666V14.4032H21.3333M9.66659 11.856C12.7816 11.856 18.9999 13.5626 18.9999 16.9504V20.7711H0.333252V16.9504C0.333252 13.5626 6.55159 11.856 9.66659 11.856ZM9.66659 0.393707C10.9043 0.393707 12.0912 0.930433 12.9664 1.88581C13.8416 2.84119 14.3333 4.13696 14.3333 5.48807C14.3333 6.83917 13.8416 8.13495 12.9664 9.09032C12.0912 10.0457 10.9043 10.5824 9.66659 10.5824C8.42891 10.5824 7.24192 10.0457 6.36675 9.09032C5.49158 8.13495 4.99992 6.83917 4.99992 5.48807C4.99992 4.13696 5.49158 2.84119 6.36675 1.88581C7.24192 0.930433 8.42891 0.393707 9.66659 0.393707ZM9.66659 14.2758C6.20159 14.2758 2.54992 16.1353 2.54992 16.9504V18.3513H16.7833V16.9504C16.7833 16.1353 13.1316 14.2758 9.66659 14.2758ZM9.66659 2.81353C9.01681 2.81353 8.39364 3.09531 7.93417 3.59688C7.47471 4.09846 7.21659 4.77873 7.21659 5.48807C7.21659 6.1974 7.47471 6.87768 7.93417 7.37925C8.39364 7.88082 9.01681 8.16261 9.66659 8.16261C10.3164 8.16261 10.9395 7.88082 11.399 7.37925C11.8585 6.87768 12.1166 6.1974 12.1166 5.48807C12.1166 4.77873 11.8585 4.09846 11.399 3.59688C10.9395 3.09531 10.3164 2.81353 9.66659 2.81353Z" fill="black"/>
</svg>
