<svg width="26" height="25" viewBox="0 0 26 25" fill="none" xmlns="http://www.w3.org/2000/svg">
<path d="M24.2354 17.2509H7.95225L8.76982 15.433L22.3542 15.4062C22.8136 15.4062 23.2073 15.048 23.2894 14.5525L25.1706 3.05733C25.2198 2.75584 25.146 2.44541 24.9655 2.20959C24.8763 2.09354 24.7651 2.00005 24.6395 1.93562C24.5139 1.87119 24.377 1.83736 24.2382 1.83647L6.95693 1.77379L6.80928 1.0156C6.71631 0.532037 6.31709 0.17981 5.86318 0.17981H1.63857C1.38258 0.17981 1.13707 0.290824 0.95605 0.48843C0.775034 0.686037 0.67334 0.954049 0.67334 1.23351C0.67334 1.51296 0.775034 1.78098 0.95605 1.97858C1.13707 2.17619 1.38258 2.2872 1.63857 2.2872H5.08115L5.72646 5.63635L7.31514 14.0331L5.26982 17.6777C5.16361 17.8342 5.09963 18.0201 5.08514 18.2142C5.07064 18.4083 5.1062 18.603 5.18779 18.7762C5.35186 19.1314 5.68271 19.3553 6.04912 19.3553H7.76631C7.40023 19.8861 7.20249 20.5326 7.20303 21.197C7.20303 22.8865 8.46084 24.2596 10.0085 24.2596C11.5562 24.2596 12.814 22.8865 12.814 21.197C12.814 20.5314 12.6116 19.8836 12.2507 19.3553H16.6558C16.2897 19.8861 16.0919 20.5326 16.0925 21.197C16.0925 22.8865 17.3503 24.2596 18.8979 24.2596C20.4456 24.2596 21.7034 22.8865 21.7034 21.197C21.7034 20.5314 21.5011 19.8836 21.1401 19.3553H24.2382C24.7687 19.3553 25.2034 18.8837 25.2034 18.3016C25.2018 18.0224 25.0992 17.7553 24.9178 17.5584C24.7365 17.3616 24.4912 17.251 24.2354 17.2509ZM7.35889 3.85133L23.1034 3.90805L21.5612 13.3346L9.19365 13.3585L7.35889 3.85133ZM10.0085 22.1403C9.53271 22.1403 9.14443 21.7164 9.14443 21.197C9.14443 20.6776 9.53271 20.2538 10.0085 20.2538C10.4843 20.2538 10.8726 20.6776 10.8726 21.197C10.8726 21.4472 10.7815 21.6871 10.6195 21.864C10.4574 22.0409 10.2377 22.1403 10.0085 22.1403ZM18.8979 22.1403C18.4222 22.1403 18.0339 21.7164 18.0339 21.197C18.0339 20.6776 18.4222 20.2538 18.8979 20.2538C19.3737 20.2538 19.762 20.6776 19.762 21.197C19.762 21.4472 19.671 21.6871 19.5089 21.864C19.3469 22.0409 19.1271 22.1403 18.8979 22.1403Z" fill="black"/>
</svg>
